<svg width="40" height="23" viewBox="0 0 40 23" fill="none" xmlns="http://www.w3.org/2000/svg">
<path d="M29.1239 16.7903C28.208 16.7903 27.463 16.0447 27.463 15.1288C27.463 14.2129 28.208 13.4679 29.1239 13.4679C30.0399 13.4679 30.7849 14.2128 30.7849 15.1288C30.7849 16.0448 30.0399 16.7903 29.1239 16.7903ZM10.7649 16.7903C9.84908 16.7903 9.10407 16.0447 9.10407 15.1288C9.10407 14.2129 9.84893 13.4679 10.7649 13.4679C11.6808 13.4679 12.4258 14.2128 12.4258 15.1288C12.4258 16.0448 11.681 16.7903 10.7649 16.7903ZM29.7196 6.78492L33.0392 1.03557C33.1306 0.876904 33.1553 0.688466 33.1079 0.511607C33.0605 0.334747 32.9449 0.183911 32.7864 0.0921937C32.6277 0.000857372 32.4393 -0.0238226 32.2625 0.0235667C32.0856 0.070956 31.9348 0.186545 31.843 0.344987L28.4819 6.167C25.9114 4.99408 23.0248 4.34059 19.9444 4.34059C16.8641 4.34059 13.9774 4.99408 11.407 6.167L8.04577 0.344987C7.95403 0.186545 7.80319 0.070956 7.62634 0.0235667C7.4495 -0.0238226 7.26107 0.000857372 7.1024 0.0921937C6.94383 0.183825 6.82814 0.334663 6.78073 0.511558C6.73333 0.688453 6.7581 0.876932 6.8496 1.03557L10.1692 6.78492C4.46896 9.88518 0.570344 15.656 0 22.4738H39.8888C39.318 15.6561 35.4194 9.88518 29.7196 6.78477" fill="#3DDB85"/>
</svg>
