<svg width="2152" height="1304" viewBox="0 0 2152 1304" fill="none" xmlns="http://www.w3.org/2000/svg">
<path d="M0 1041C0 895.749 117.749 778 263 778V778C408.251 778 526 895.749 526 1041V1041C526 1186.25 408.251 1304 263 1304H0V1041Z" fill="white" fill-opacity="0.07"/>
<path d="M2152 789C2152 934.251 2034.25 1052 1889 1052V1052C1743.75 1052 1626 934.251 1626 789V789C1626 643.749 1743.75 526 1889 526H2152V789Z" fill="white" fill-opacity="0.03"/>
<path d="M0 512C0 366.749 117.749 249 263 249V249C408.251 249 526 366.749 526 512V512C526 657.251 408.251 775 263 775H0V512Z" fill="white" fill-opacity="0.03"/>
<path d="M526 304H1076V859C1076 1052.3 919.3 1209 726 1209H526V304Z" fill="white" fill-opacity="0.03"/>
<path d="M1626 1304H1076V876C1076 682.7 1232.7 526 1426 526H1626L1626 1304Z" fill="white" fill-opacity="0.07"/>
<path d="M1626 263C1626 117.749 1743.75 0 1889 0V0C2034.25 0 2152 117.749 2152 263V263C2152 408.251 2034.25 526 1889 526H1626V263Z" fill="white" fill-opacity="0.07"/>
</svg>
