<svg width="68" height="28" viewBox="0 0 68 28" fill="none" xmlns="http://www.w3.org/2000/svg">
<path d="M5.10153 0.0678854C4.46441 0.241472 3.81813 0.753095 3.53395 1.31497C2.90142 2.56662 3.38269 4.08321 4.6065 4.6862C5.43155 5.08819 6.27492 5.04708 7.08621 4.56286C7.6179 4.2431 8.03959 3.6127 8.18627 2.92293C8.43378 1.73066 7.69124 0.488147 6.49493 0.113566C6.07783 -0.0189075 5.49571 -0.0371799 5.10153 0.0678854Z" fill="#00FFB3"/>
<path d="M55.9468 0.0677605C54.5626 0.446909 53.7604 1.9361 54.2234 3.26084C54.6359 4.4531 55.8597 5.16572 57.0652 4.91448C58.0232 4.71348 58.7932 3.97345 59.0132 3.05071C59.3203 1.74424 58.5136 0.405797 57.221 0.0723281C56.8818 -0.0144649 56.2585 -0.0144649 55.9468 0.0677605Z" fill="#00FFB3"/>
<path d="M64.2571 0.0632148C63.4458 0.28705 62.8133 0.871762 62.5291 1.65747C62.3641 2.10971 62.3549 2.79948 62.5108 3.25172C62.8454 4.21558 63.6704 4.85968 64.6971 4.95561C65.866 5.06524 67.0348 4.21102 67.3098 3.05073C67.6169 1.74426 66.8102 0.405819 65.5176 0.072351C65.183 -0.0144424 64.5551 -0.0190105 64.2571 0.0632148Z" fill="#00FFB3"/>
<path d="M43.0076 10.5836C43.0213 19.5461 42.9984 18.902 43.3239 19.9161C43.5851 20.7292 43.9014 21.2363 44.5018 21.7982C45.3635 22.6067 46.7294 22.995 48.3108 22.8808C49.31 22.8077 50.0938 22.5154 50.5705 22.0357C51.0747 21.5378 51.1984 21.0993 51.1984 19.7837V18.902L51.0976 18.9294C50.4925 19.0939 49.7042 19.0756 49.2871 18.8929C48.7783 18.6645 48.407 18.1574 48.3108 17.5544C48.2833 17.3991 48.2649 15.581 48.2649 13.2102V9.1355H50.3321H52.4039L52.3764 7.9341C52.3489 6.62307 52.2939 6.23478 52.0785 5.80081C51.941 5.5313 51.6705 5.29376 51.3909 5.19783C51.2763 5.16129 50.7538 5.13844 49.7454 5.12931L48.2649 5.11104V4.78214C48.2604 4.02841 48.0633 3.41172 47.7332 3.10566C47.2336 2.64885 46.4269 2.51181 44.2177 2.51181H42.9893L43.0076 10.5836Z" fill="white"/>
<path d="M56.5838 7.47712C56.0338 7.50909 55.4562 7.60045 55.1216 7.70552C54.8054 7.80602 54.7229 7.85627 54.4983 8.0801C54.1774 8.39987 54.0582 8.7242 53.9941 9.46879C53.9666 9.77485 53.9482 12.4791 53.9482 16.2706V22.5654H56.6067H59.2652V15.0053V7.44514L58.0414 7.45428C57.363 7.45885 56.7121 7.46798 56.5838 7.47712Z" fill="white"/>
<path d="M64.6514 7.47712C62.9371 7.58218 62.3733 7.91108 62.1258 8.95717C62.0525 9.2678 62.0433 9.78856 62.0296 15.928L62.0112 22.5654H64.6697H67.3327V15.0053V7.44514L66.1089 7.45428C65.4306 7.45885 64.7797 7.46798 64.6514 7.47712Z" fill="white"/>
<path d="M12.4215 7.52297C11.8715 7.55038 11.2802 7.64174 10.9364 7.75138C10.6293 7.8473 10.5376 7.90212 10.313 8.12139C10.0884 8.34066 10.0334 8.43202 9.95094 8.69696C9.89594 8.87512 9.83177 9.20402 9.80885 9.42785C9.74926 9.99429 9.74926 16.4444 9.80885 17.0428C9.97844 18.7513 10.5835 20.0851 11.6239 21.0536C12.9119 22.2504 14.7453 22.8534 17.1196 22.8534C18.1922 22.8534 18.8706 22.7757 19.7643 22.5473C21.0936 22.2047 22.079 21.6703 22.8949 20.8571C23.7154 20.0349 24.1829 19.1396 24.4854 17.8194C24.5863 17.3854 24.5863 17.326 24.6 12.5022L24.6183 7.62804H21.9782H19.3427V11.8809C19.3427 14.7725 19.3243 16.2343 19.2922 16.4581C19.1547 17.3352 18.7422 17.9199 18.0684 18.1894C17.8393 18.2808 17.7292 18.2945 17.1425 18.2945C16.4825 18.2945 16.4733 18.2945 16.1754 18.1483C15.6391 17.8833 15.3091 17.4311 15.1395 16.7322C15.0708 16.4581 15.0616 15.9054 15.0479 11.954L15.0295 7.491L13.8516 7.50013C13.2053 7.5047 12.559 7.51384 12.4215 7.52297Z" fill="white"/>
<path d="M32.2455 7.54126C31.2233 7.6509 30.1049 7.95239 29.3211 8.33154C28.6657 8.64674 28.2073 8.97107 27.6802 9.49639C26.8231 10.3461 26.3785 11.182 26.0668 12.525C25.9706 12.9407 25.9706 13.0366 25.9568 17.8468L25.9385 22.7483H28.5786H31.2142V18.4361C31.2142 13.7081 31.2142 13.7036 31.4846 13.128C31.7779 12.5067 32.2867 12.1459 33.0155 12.0499C34.2164 11.8901 35.0506 12.388 35.3714 13.4569C35.4448 13.7036 35.454 14.1056 35.4769 18.2945L35.4998 22.8625L36.829 22.8534C38.2912 22.8443 38.9375 22.794 39.4737 22.6524C40.3354 22.4194 40.6517 21.9626 40.748 20.7886C40.8076 20.0715 40.8076 14.1878 40.748 13.4478C40.6013 11.6754 40.01 10.3278 38.9329 9.31824C37.9749 8.42747 36.8107 7.90214 35.156 7.61892C34.5372 7.51385 32.9009 7.47274 32.2455 7.54126Z" fill="white"/>
<path d="M6.27948 7.63251C4.83566 7.66906 4.36813 7.73301 3.86394 7.94771C3.39642 8.1487 3.08932 8.61008 2.97931 9.28159C2.95181 9.46888 2.93348 11.8397 2.93348 15.9647C2.93348 20.0851 2.91514 22.465 2.88764 22.6569C2.75014 23.5157 2.15886 24.0684 1.29256 24.1461C1.02213 24.1689 0.490441 24.1232 0.12834 24.0456L0 24.0182V24.8998C0 26.1651 0.110005 26.59 0.550027 27.0605C0.985466 27.531 1.68217 27.8462 2.54846 27.9604C3.19016 28.0426 4.31771 27.9924 4.86316 27.8508C5.77529 27.6132 6.37115 27.2798 6.93034 26.6813C7.34286 26.2428 7.62246 25.7632 7.84247 25.1054C8.19999 24.0456 8.18166 24.6166 8.18166 15.6221V7.60511L7.90664 7.60054C7.75538 7.59597 7.02202 7.60967 6.27948 7.63251Z" fill="white"/>
</svg>
