<svg width="302" height="284" viewBox="0 0 302 284" fill="none" xmlns="http://www.w3.org/2000/svg">
<g opacity="0.4">
<path d="M302 2.78869V4.008H300.047V5.83698H298.746V4.008H296.793V2.78869H298.746V0.959717H300.047V2.78869H302Z" fill="white"/>
<path d="M302 17.4204V18.6397H300.047V20.4687H298.746V18.6397H296.793V17.4204H298.746V15.5914H300.047V17.4204H302Z" fill="white"/>
<path d="M302 32.0522V33.2716H300.047V35.1005H298.746V33.2716H296.793V32.0522H298.746V30.2233H300.047V32.0522H302Z" fill="white"/>
<path d="M302 46.6839V47.9033H300.047V49.7322H298.746V47.9033H296.793V46.6839H298.746V44.855H300.047V46.6839H302Z" fill="white"/>
<path d="M302 61.3158V62.5351H300.047V64.3641H298.746V62.5351H296.793V61.3158H298.746V59.4868H300.047V61.3158H302Z" fill="white"/>
<path d="M302 75.9475V77.1668H300.047V78.9958H298.746V77.1668H296.793V75.9475H298.746V74.1185H300.047V75.9475H302Z" fill="white"/>
<path d="M302 90.5792V91.7985H300.047V93.6275H298.746V91.7985H296.793V90.5792H298.746V88.7502H300.047V90.5792H302Z" fill="white"/>
<path d="M302 105.211V106.43H300.047V108.259H298.746V106.43H296.793V105.211H298.746V103.382H300.047V105.211H302Z" fill="white"/>
<path d="M302 119.843V121.062H300.047V122.891H298.746V121.062H296.793V119.843H298.746V118.014H300.047V119.843H302Z" fill="white"/>
<path d="M302 134.475V135.694H300.047V137.523H298.746V135.694H296.793V134.475H298.746V132.646H300.047V134.475H302Z" fill="white"/>
<path d="M302 149.106V150.326H300.047V152.155H298.746V150.326H296.793V149.106H298.746V147.277H300.047V149.106H302Z" fill="white"/>
<path d="M302 163.738V164.957H300.047V166.786H298.746V164.957H296.793V163.738H298.746V161.909H300.047V163.738H302Z" fill="white"/>
<path d="M302 178.37V179.589H300.047V181.418H298.746V179.589H296.793V178.37H298.746V176.541H300.047V178.37H302Z" fill="white"/>
<path d="M302 193.002V194.221H300.047V196.05H298.746V194.221H296.793V193.002H298.746V191.173H300.047V193.002H302Z" fill="white"/>
<path d="M302 207.633V208.853H300.047V210.682H298.746V208.853H296.793V207.633H298.746V205.804H300.047V207.633H302Z" fill="white"/>
<path d="M302 222.265V223.484H300.047V225.313H298.746V223.484H296.793V222.265H298.746V220.436H300.047V222.265H302Z" fill="white"/>
<path d="M302 236.897V238.116H300.047V239.945H298.746V238.116H296.793V236.897H298.746V235.068H300.047V236.897H302Z" fill="white"/>
<path d="M302 251.529V252.748H300.047V254.577H298.746V252.748H296.793V251.529H298.746V249.7H300.047V251.529H302Z" fill="white"/>
<path d="M302 266.161V267.38H300.047V269.209H298.746V267.38H296.793V266.161H298.746V264.332H300.047V266.161H302Z" fill="white"/>
<path d="M302 280.792V282.012H300.047V283.841H298.746V282.012H296.793V280.792H298.746V278.963H300.047V280.792H302Z" fill="white"/>
<path d="M286.38 2.78869V4.008H284.427V5.83698H283.125V4.008H281.173V2.78869H283.125V0.959717H284.427V2.78869H286.38Z" fill="white"/>
<path d="M286.38 17.4204V18.6397H284.427V20.4687H283.125V18.6397H281.173V17.4204H283.125V15.5914H284.427V17.4204H286.38Z" fill="white"/>
<path d="M286.38 32.0522V33.2716H284.427V35.1005H283.125V33.2716H281.173V32.0522H283.125V30.2233H284.427V32.0522H286.38Z" fill="white"/>
<path d="M286.38 46.6839V47.9033H284.427V49.7322H283.125V47.9033H281.173V46.6839H283.125V44.855H284.427V46.6839H286.38Z" fill="white"/>
<path d="M286.38 61.3158V62.5351H284.427V64.3641H283.125V62.5351H281.173V61.3158H283.125V59.4868H284.427V61.3158H286.38Z" fill="white"/>
<path d="M286.38 75.9475V77.1668H284.427V78.9958H283.125V77.1668H281.173V75.9475H283.125V74.1185H284.427V75.9475H286.38Z" fill="white"/>
<path d="M286.38 90.5792V91.7985H284.427V93.6275H283.125V91.7985H281.173V90.5792H283.125V88.7502H284.427V90.5792H286.38Z" fill="white"/>
<path d="M286.38 105.211V106.43H284.427V108.259H283.125V106.43H281.173V105.211H283.125V103.382H284.427V105.211H286.38Z" fill="white"/>
<path d="M286.38 119.843V121.062H284.427V122.891H283.125V121.062H281.173V119.843H283.125V118.014H284.427V119.843H286.38Z" fill="white"/>
<path d="M286.38 134.475V135.694H284.427V137.523H283.125V135.694H281.173V134.475H283.125V132.646H284.427V134.475H286.38Z" fill="white"/>
<path d="M286.38 149.106V150.326H284.427V152.155H283.125V150.326H281.173V149.106H283.125V147.277H284.427V149.106H286.38Z" fill="white"/>
<path d="M286.38 163.738V164.957H284.427V166.786H283.125V164.957H281.173V163.738H283.125V161.909H284.427V163.738H286.38Z" fill="white"/>
<path d="M286.38 178.37V179.589H284.427V181.418H283.125V179.589H281.173V178.37H283.125V176.541H284.427V178.37H286.38Z" fill="white"/>
<path d="M286.38 193.002V194.221H284.427V196.05H283.125V194.221H281.173V193.002H283.125V191.173H284.427V193.002H286.38Z" fill="white"/>
<path d="M286.38 207.633V208.853H284.427V210.682H283.125V208.853H281.173V207.633H283.125V205.804H284.427V207.633H286.38Z" fill="white"/>
<path d="M286.38 222.265V223.484H284.427V225.313H283.125V223.484H281.173V222.265H283.125V220.436H284.427V222.265H286.38Z" fill="white"/>
<path d="M286.38 236.897V238.116H284.427V239.945H283.125V238.116H281.173V236.897H283.125V235.068H284.427V236.897H286.38Z" fill="white"/>
<path d="M286.38 251.529V252.748H284.427V254.577H283.125V252.748H281.173V251.529H283.125V249.7H284.427V251.529H286.38Z" fill="white"/>
<path d="M286.38 266.161V267.38H284.427V269.209H283.125V267.38H281.173V266.161H283.125V264.332H284.427V266.161H286.38Z" fill="white"/>
<path d="M286.38 280.792V282.012H284.427V283.841H283.125V282.012H281.173V280.792H283.125V278.963H284.427V280.792H286.38Z" fill="white"/>
<path d="M270.759 2.78869V4.008H268.806V5.83698H267.504V4.008H265.552V2.78869H267.504V0.959717H268.806V2.78869H270.759Z" fill="white"/>
<path d="M270.759 17.4204V18.6397H268.806V20.4687H267.504V18.6397H265.552V17.4204H267.504V15.5914H268.806V17.4204H270.759Z" fill="white"/>
<path d="M270.759 32.0522V33.2716H268.806V35.1005H267.504V33.2716H265.552V32.0522H267.504V30.2233H268.806V32.0522H270.759Z" fill="white"/>
<path d="M270.759 46.6839V47.9033H268.806V49.7322H267.504V47.9033H265.552V46.6839H267.504V44.855H268.806V46.6839H270.759Z" fill="white"/>
<path d="M270.759 61.3158V62.5351H268.806V64.3641H267.504V62.5351H265.552V61.3158H267.504V59.4868H268.806V61.3158H270.759Z" fill="white"/>
<path d="M270.759 75.9475V77.1668H268.806V78.9958H267.504V77.1668H265.552V75.9475H267.504V74.1185H268.806V75.9475H270.759Z" fill="white"/>
<path d="M270.759 90.5792V91.7985H268.806V93.6275H267.504V91.7985H265.552V90.5792H267.504V88.7502H268.806V90.5792H270.759Z" fill="white"/>
<path d="M270.759 105.211V106.43H268.806V108.259H267.504V106.43H265.552V105.211H267.504V103.382H268.806V105.211H270.759Z" fill="white"/>
<path d="M270.759 119.843V121.062H268.806V122.891H267.504V121.062H265.552V119.843H267.504V118.014H268.806V119.843H270.759Z" fill="white"/>
<path d="M270.759 134.475V135.694H268.806V137.523H267.504V135.694H265.552V134.475H267.504V132.646H268.806V134.475H270.759Z" fill="white"/>
<path d="M270.759 149.106V150.326H268.806V152.155H267.504V150.326H265.552V149.106H267.504V147.277H268.806V149.106H270.759Z" fill="white"/>
<path d="M270.759 163.738V164.957H268.806V166.786H267.504V164.957H265.552V163.738H267.504V161.909H268.806V163.738H270.759Z" fill="white"/>
<path d="M270.759 178.37V179.589H268.806V181.418H267.504V179.589H265.552V178.37H267.504V176.541H268.806V178.37H270.759Z" fill="white"/>
<path d="M270.759 193.002V194.221H268.806V196.05H267.504V194.221H265.552V193.002H267.504V191.173H268.806V193.002H270.759Z" fill="white"/>
<path d="M270.759 207.633V208.853H268.806V210.682H267.504V208.853H265.552V207.633H267.504V205.804H268.806V207.633H270.759Z" fill="white"/>
<path d="M270.759 222.265V223.484H268.806V225.313H267.504V223.484H265.552V222.265H267.504V220.436H268.806V222.265H270.759Z" fill="white"/>
<path d="M270.759 236.897V238.116H268.806V239.945H267.504V238.116H265.552V236.897H267.504V235.068H268.806V236.897H270.759Z" fill="white"/>
<path d="M270.759 251.529V252.748H268.806V254.577H267.504V252.748H265.552V251.529H267.504V249.7H268.806V251.529H270.759Z" fill="white"/>
<path d="M270.759 266.161V267.38H268.806V269.209H267.504V267.38H265.552V266.161H267.504V264.332H268.806V266.161H270.759Z" fill="white"/>
<path d="M270.759 280.792V282.012H268.806V283.841H267.504V282.012H265.552V280.792H267.504V278.963H268.806V280.792H270.759Z" fill="white"/>
<path d="M255.138 2.78869V4.008H253.185V5.83698H251.884V4.008H249.931V2.78869H251.884V0.959717H253.185V2.78869H255.138Z" fill="white"/>
<path d="M255.138 17.4204V18.6397H253.185V20.4687H251.884V18.6397H249.931V17.4204H251.884V15.5914H253.185V17.4204H255.138Z" fill="white"/>
<path d="M255.138 32.0522V33.2716H253.185V35.1005H251.884V33.2716H249.931V32.0522H251.884V30.2233H253.185V32.0522H255.138Z" fill="white"/>
<path d="M255.138 46.6839V47.9033H253.185V49.7322H251.884V47.9033H249.931V46.6839H251.884V44.855H253.185V46.6839H255.138Z" fill="white"/>
<path d="M255.138 61.3158V62.5351H253.185V64.3641H251.884V62.5351H249.931V61.3158H251.884V59.4868H253.185V61.3158H255.138Z" fill="white"/>
<path d="M255.138 75.9475V77.1668H253.185V78.9958H251.884V77.1668H249.931V75.9475H251.884V74.1185H253.185V75.9475H255.138Z" fill="white"/>
<path d="M255.138 90.5792V91.7985H253.185V93.6275H251.884V91.7985H249.931V90.5792H251.884V88.7502H253.185V90.5792H255.138Z" fill="white"/>
<path d="M255.138 105.211V106.43H253.185V108.259H251.884V106.43H249.931V105.211H251.884V103.382H253.185V105.211H255.138Z" fill="white"/>
<path d="M255.138 119.843V121.062H253.185V122.891H251.884V121.062H249.931V119.843H251.884V118.014H253.185V119.843H255.138Z" fill="white"/>
<path d="M255.138 134.475V135.694H253.185V137.523H251.884V135.694H249.931V134.475H251.884V132.646H253.185V134.475H255.138Z" fill="white"/>
<path d="M255.138 149.106V150.326H253.185V152.155H251.884V150.326H249.931V149.106H251.884V147.277H253.185V149.106H255.138Z" fill="white"/>
<path d="M255.138 163.738V164.957H253.185V166.786H251.884V164.957H249.931V163.738H251.884V161.909H253.185V163.738H255.138Z" fill="white"/>
<path d="M255.138 178.37V179.589H253.185V181.418H251.884V179.589H249.931V178.37H251.884V176.541H253.185V178.37H255.138Z" fill="white"/>
<path d="M255.138 193.002V194.221H253.185V196.05H251.884V194.221H249.931V193.002H251.884V191.173H253.185V193.002H255.138Z" fill="white"/>
<path d="M255.138 207.633V208.853H253.185V210.682H251.884V208.853H249.931V207.633H251.884V205.804H253.185V207.633H255.138Z" fill="white"/>
<path d="M255.138 222.265V223.484H253.185V225.313H251.884V223.484H249.931V222.265H251.884V220.436H253.185V222.265H255.138Z" fill="white"/>
<path d="M255.138 236.897V238.116H253.185V239.945H251.884V238.116H249.931V236.897H251.884V235.068H253.185V236.897H255.138Z" fill="white"/>
<path d="M255.138 251.529V252.748H253.185V254.577H251.884V252.748H249.931V251.529H251.884V249.7H253.185V251.529H255.138Z" fill="white"/>
<path d="M255.138 266.161V267.38H253.185V269.209H251.884V267.38H249.931V266.161H251.884V264.332H253.185V266.161H255.138Z" fill="white"/>
<path d="M255.138 280.792V282.012H253.185V283.841H251.884V282.012H249.931V280.792H251.884V278.963H253.185V280.792H255.138Z" fill="white"/>
<path d="M239.518 2.78869V4.008H237.565V5.83698H236.263V4.008H234.311V2.78869H236.263V0.959717H237.565V2.78869H239.518Z" fill="white"/>
<path d="M239.518 17.4204V18.6397H237.565V20.4687H236.263V18.6397H234.311V17.4204H236.263V15.5914H237.565V17.4204H239.518Z" fill="white"/>
<path d="M239.518 32.0522V33.2716H237.565V35.1005H236.263V33.2716H234.311V32.0522H236.263V30.2233H237.565V32.0522H239.518Z" fill="white"/>
<path d="M239.518 46.6839V47.9033H237.565V49.7322H236.263V47.9033H234.311V46.6839H236.263V44.855H237.565V46.6839H239.518Z" fill="white"/>
<path d="M239.518 61.3158V62.5351H237.565V64.3641H236.263V62.5351H234.311V61.3158H236.263V59.4868H237.565V61.3158H239.518Z" fill="white"/>
<path d="M239.518 75.9475V77.1668H237.565V78.9958H236.263V77.1668H234.311V75.9475H236.263V74.1185H237.565V75.9475H239.518Z" fill="white"/>
<path d="M239.518 90.5792V91.7985H237.565V93.6275H236.263V91.7985H234.311V90.5792H236.263V88.7502H237.565V90.5792H239.518Z" fill="white"/>
<path d="M239.518 105.211V106.43H237.565V108.259H236.263V106.43H234.311V105.211H236.263V103.382H237.565V105.211H239.518Z" fill="white"/>
<path d="M239.518 119.843V121.062H237.565V122.891H236.263V121.062H234.311V119.843H236.263V118.014H237.565V119.843H239.518Z" fill="white"/>
<path d="M239.518 134.475V135.694H237.565V137.523H236.263V135.694H234.311V134.475H236.263V132.646H237.565V134.475H239.518Z" fill="white"/>
<path d="M239.518 149.106V150.326H237.565V152.155H236.263V150.326H234.311V149.106H236.263V147.277H237.565V149.106H239.518Z" fill="white"/>
<path d="M239.518 163.738V164.957H237.565V166.786H236.263V164.957H234.311V163.738H236.263V161.909H237.565V163.738H239.518Z" fill="white"/>
<path d="M239.518 178.37V179.589H237.565V181.418H236.263V179.589H234.311V178.37H236.263V176.541H237.565V178.37H239.518Z" fill="white"/>
<path d="M239.518 193.002V194.221H237.565V196.05H236.263V194.221H234.311V193.002H236.263V191.173H237.565V193.002H239.518Z" fill="white"/>
<path d="M239.518 207.633V208.853H237.565V210.682H236.263V208.853H234.311V207.633H236.263V205.804H237.565V207.633H239.518Z" fill="white"/>
<path d="M239.518 222.265V223.484H237.565V225.313H236.263V223.484H234.311V222.265H236.263V220.436H237.565V222.265H239.518Z" fill="white"/>
<path d="M239.518 236.897V238.116H237.565V239.945H236.263V238.116H234.311V236.897H236.263V235.068H237.565V236.897H239.518Z" fill="white"/>
<path d="M239.518 251.529V252.748H237.565V254.577H236.263V252.748H234.311V251.529H236.263V249.7H237.565V251.529H239.518Z" fill="white"/>
<path d="M239.518 266.161V267.38H237.565V269.209H236.263V267.38H234.311V266.161H236.263V264.332H237.565V266.161H239.518Z" fill="white"/>
<path d="M239.518 280.792V282.012H237.565V283.841H236.263V282.012H234.311V280.792H236.263V278.963H237.565V280.792H239.518Z" fill="white"/>
<path d="M223.897 2.78869V4.008H221.944V5.83698H220.642V4.008H218.69V2.78869H220.642V0.959717H221.944V2.78869H223.897Z" fill="white"/>
<path d="M223.897 17.4204V18.6397H221.944V20.4687H220.642V18.6397H218.69V17.4204H220.642V15.5914H221.944V17.4204H223.897Z" fill="white"/>
<path d="M223.897 32.0522V33.2716H221.944V35.1005H220.642V33.2716H218.69V32.0522H220.642V30.2233H221.944V32.0522H223.897Z" fill="white"/>
<path d="M223.897 46.6839V47.9033H221.944V49.7322H220.642V47.9033H218.69V46.6839H220.642V44.855H221.944V46.6839H223.897Z" fill="white"/>
<path d="M223.897 61.3158V62.5351H221.944V64.3641H220.642V62.5351H218.69V61.3158H220.642V59.4868H221.944V61.3158H223.897Z" fill="white"/>
<path d="M223.897 75.9475V77.1668H221.944V78.9958H220.642V77.1668H218.69V75.9475H220.642V74.1185H221.944V75.9475H223.897Z" fill="white"/>
<path d="M223.897 90.5792V91.7985H221.944V93.6275H220.642V91.7985H218.69V90.5792H220.642V88.7502H221.944V90.5792H223.897Z" fill="white"/>
<path d="M223.897 105.211V106.43H221.944V108.259H220.642V106.43H218.69V105.211H220.642V103.382H221.944V105.211H223.897Z" fill="white"/>
<path d="M223.897 119.843V121.062H221.944V122.891H220.642V121.062H218.69V119.843H220.642V118.014H221.944V119.843H223.897Z" fill="white"/>
<path d="M223.897 134.475V135.694H221.944V137.523H220.642V135.694H218.69V134.475H220.642V132.646H221.944V134.475H223.897Z" fill="white"/>
<path d="M223.897 149.106V150.326H221.944V152.155H220.642V150.326H218.69V149.106H220.642V147.277H221.944V149.106H223.897Z" fill="white"/>
<path d="M223.897 163.738V164.957H221.944V166.786H220.642V164.957H218.69V163.738H220.642V161.909H221.944V163.738H223.897Z" fill="white"/>
<path d="M223.897 178.37V179.589H221.944V181.418H220.642V179.589H218.69V178.37H220.642V176.541H221.944V178.37H223.897Z" fill="white"/>
<path d="M223.897 193.002V194.221H221.944V196.05H220.642V194.221H218.69V193.002H220.642V191.173H221.944V193.002H223.897Z" fill="white"/>
<path d="M223.897 207.633V208.853H221.944V210.682H220.642V208.853H218.69V207.633H220.642V205.804H221.944V207.633H223.897Z" fill="white"/>
<path d="M223.897 222.265V223.484H221.944V225.313H220.642V223.484H218.69V222.265H220.642V220.436H221.944V222.265H223.897Z" fill="white"/>
<path d="M223.897 236.897V238.116H221.944V239.945H220.642V238.116H218.69V236.897H220.642V235.068H221.944V236.897H223.897Z" fill="white"/>
<path d="M223.897 251.529V252.748H221.944V254.577H220.642V252.748H218.69V251.529H220.642V249.7H221.944V251.529H223.897Z" fill="white"/>
<path d="M223.897 266.161V267.38H221.944V269.209H220.642V267.38H218.69V266.161H220.642V264.332H221.944V266.161H223.897Z" fill="white"/>
<path d="M223.897 280.792V282.012H221.944V283.841H220.642V282.012H218.69V280.792H220.642V278.963H221.944V280.792H223.897Z" fill="white"/>
<path d="M208.276 2.78869V4.008H206.324V5.83698H205.022V4.008H203.069V2.78869H205.022V0.959717H206.324V2.78869H208.276Z" fill="white"/>
<path d="M208.276 17.4204V18.6397H206.324V20.4687H205.022V18.6397H203.069V17.4204H205.022V15.5914H206.324V17.4204H208.276Z" fill="white"/>
<path d="M208.276 32.0522V33.2716H206.324V35.1005H205.022V33.2716H203.069V32.0522H205.022V30.2233H206.324V32.0522H208.276Z" fill="white"/>
<path d="M208.276 46.6839V47.9033H206.324V49.7322H205.022V47.9033H203.069V46.6839H205.022V44.855H206.324V46.6839H208.276Z" fill="white"/>
<path d="M208.276 61.3158V62.5351H206.324V64.3641H205.022V62.5351H203.069V61.3158H205.022V59.4868H206.324V61.3158H208.276Z" fill="white"/>
<path d="M208.276 75.9475V77.1668H206.324V78.9958H205.022V77.1668H203.069V75.9475H205.022V74.1185H206.324V75.9475H208.276Z" fill="white"/>
<path d="M208.276 90.5792V91.7985H206.324V93.6275H205.022V91.7985H203.069V90.5792H205.022V88.7502H206.324V90.5792H208.276Z" fill="white"/>
<path d="M208.276 105.211V106.43H206.324V108.259H205.022V106.43H203.069V105.211H205.022V103.382H206.324V105.211H208.276Z" fill="white"/>
<path d="M208.276 119.843V121.062H206.324V122.891H205.022V121.062H203.069V119.843H205.022V118.014H206.324V119.843H208.276Z" fill="white"/>
<path d="M208.276 134.475V135.694H206.324V137.523H205.022V135.694H203.069V134.475H205.022V132.646H206.324V134.475H208.276Z" fill="white"/>
<path d="M208.276 149.106V150.326H206.324V152.155H205.022V150.326H203.069V149.106H205.022V147.277H206.324V149.106H208.276Z" fill="white"/>
<path d="M208.276 163.738V164.957H206.324V166.786H205.022V164.957H203.069V163.738H205.022V161.909H206.324V163.738H208.276Z" fill="white"/>
<path d="M208.276 178.37V179.589H206.324V181.418H205.022V179.589H203.069V178.37H205.022V176.541H206.324V178.37H208.276Z" fill="white"/>
<path d="M208.276 193.002V194.221H206.324V196.05H205.022V194.221H203.069V193.002H205.022V191.173H206.324V193.002H208.276Z" fill="white"/>
<path d="M208.276 207.633V208.853H206.324V210.682H205.022V208.853H203.069V207.633H205.022V205.804H206.324V207.633H208.276Z" fill="white"/>
<path d="M208.276 222.265V223.484H206.324V225.313H205.022V223.484H203.069V222.265H205.022V220.436H206.324V222.265H208.276Z" fill="white"/>
<path d="M208.276 236.897V238.116H206.324V239.945H205.022V238.116H203.069V236.897H205.022V235.068H206.324V236.897H208.276Z" fill="white"/>
<path d="M208.276 251.529V252.748H206.324V254.577H205.022V252.748H203.069V251.529H205.022V249.7H206.324V251.529H208.276Z" fill="white"/>
<path d="M208.276 266.161V267.38H206.324V269.209H205.022V267.38H203.069V266.161H205.022V264.332H206.324V266.161H208.276Z" fill="white"/>
<path d="M208.276 280.792V282.012H206.324V283.841H205.022V282.012H203.069V280.792H205.022V278.963H206.324V280.792H208.276Z" fill="white"/>
<path d="M192.655 2.78869V4.008H190.703V5.83698H189.401V4.008H187.448V2.78869H189.401V0.959717H190.703V2.78869H192.655Z" fill="white"/>
<path d="M192.655 17.4204V18.6397H190.703V20.4687H189.401V18.6397H187.448V17.4204H189.401V15.5914H190.703V17.4204H192.655Z" fill="white"/>
<path d="M192.655 32.0522V33.2716H190.703V35.1005H189.401V33.2716H187.448V32.0522H189.401V30.2233H190.703V32.0522H192.655Z" fill="white"/>
<path d="M192.655 46.6839V47.9033H190.703V49.7322H189.401V47.9033H187.448V46.6839H189.401V44.855H190.703V46.6839H192.655Z" fill="white"/>
<path d="M192.655 61.3158V62.5351H190.703V64.3641H189.401V62.5351H187.448V61.3158H189.401V59.4868H190.703V61.3158H192.655Z" fill="white"/>
<path d="M192.655 75.9475V77.1668H190.703V78.9958H189.401V77.1668H187.448V75.9475H189.401V74.1185H190.703V75.9475H192.655Z" fill="white"/>
<path d="M192.655 90.5792V91.7985H190.703V93.6275H189.401V91.7985H187.448V90.5792H189.401V88.7502H190.703V90.5792H192.655Z" fill="white"/>
<path d="M192.655 105.211V106.43H190.703V108.259H189.401V106.43H187.448V105.211H189.401V103.382H190.703V105.211H192.655Z" fill="white"/>
<path d="M192.655 119.843V121.062H190.703V122.891H189.401V121.062H187.448V119.843H189.401V118.014H190.703V119.843H192.655Z" fill="white"/>
<path d="M192.655 134.475V135.694H190.703V137.523H189.401V135.694H187.448V134.475H189.401V132.646H190.703V134.475H192.655Z" fill="white"/>
<path d="M192.655 149.106V150.326H190.703V152.155H189.401V150.326H187.448V149.106H189.401V147.277H190.703V149.106H192.655Z" fill="white"/>
<path d="M192.655 163.738V164.957H190.703V166.786H189.401V164.957H187.448V163.738H189.401V161.909H190.703V163.738H192.655Z" fill="white"/>
<path d="M192.655 178.37V179.589H190.703V181.418H189.401V179.589H187.448V178.37H189.401V176.541H190.703V178.37H192.655Z" fill="white"/>
<path d="M192.655 193.002V194.221H190.703V196.05H189.401V194.221H187.448V193.002H189.401V191.173H190.703V193.002H192.655Z" fill="white"/>
<path d="M192.655 207.633V208.853H190.703V210.682H189.401V208.853H187.448V207.633H189.401V205.804H190.703V207.633H192.655Z" fill="white"/>
<path d="M192.655 222.265V223.484H190.703V225.313H189.401V223.484H187.448V222.265H189.401V220.436H190.703V222.265H192.655Z" fill="white"/>
<path d="M192.655 236.897V238.116H190.703V239.945H189.401V238.116H187.448V236.897H189.401V235.068H190.703V236.897H192.655Z" fill="white"/>
<path d="M192.655 251.529V252.748H190.703V254.577H189.401V252.748H187.448V251.529H189.401V249.7H190.703V251.529H192.655Z" fill="white"/>
<path d="M192.655 266.161V267.38H190.703V269.209H189.401V267.38H187.448V266.161H189.401V264.332H190.703V266.161H192.655Z" fill="white"/>
<path d="M192.655 280.792V282.012H190.703V283.841H189.401V282.012H187.448V280.792H189.401V278.963H190.703V280.792H192.655Z" fill="white"/>
<path d="M177.035 2.78869V4.008H175.082V5.83698H173.78V4.008H171.828V2.78869H173.78V0.959717H175.082V2.78869H177.035Z" fill="white"/>
<path d="M177.035 17.4204V18.6397H175.082V20.4687H173.78V18.6397H171.828V17.4204H173.78V15.5914H175.082V17.4204H177.035Z" fill="white"/>
<path d="M177.035 32.0522V33.2716H175.082V35.1005H173.78V33.2716H171.828V32.0522H173.78V30.2233H175.082V32.0522H177.035Z" fill="white"/>
<path d="M177.035 46.6839V47.9033H175.082V49.7322H173.78V47.9033H171.828V46.6839H173.78V44.855H175.082V46.6839H177.035Z" fill="white"/>
<path d="M177.035 61.3158V62.5351H175.082V64.3641H173.78V62.5351H171.828V61.3158H173.78V59.4868H175.082V61.3158H177.035Z" fill="white"/>
<path d="M177.035 75.9475V77.1668H175.082V78.9958H173.78V77.1668H171.828V75.9475H173.78V74.1185H175.082V75.9475H177.035Z" fill="white"/>
<path d="M177.035 90.5792V91.7985H175.082V93.6275H173.78V91.7985H171.828V90.5792H173.78V88.7502H175.082V90.5792H177.035Z" fill="white"/>
<path d="M177.035 105.211V106.43H175.082V108.259H173.78V106.43H171.828V105.211H173.78V103.382H175.082V105.211H177.035Z" fill="white"/>
<path d="M177.035 119.843V121.062H175.082V122.891H173.78V121.062H171.828V119.843H173.78V118.014H175.082V119.843H177.035Z" fill="white"/>
<path d="M177.035 134.475V135.694H175.082V137.523H173.78V135.694H171.828V134.475H173.78V132.646H175.082V134.475H177.035Z" fill="white"/>
<path d="M177.035 149.106V150.326H175.082V152.155H173.78V150.326H171.828V149.106H173.78V147.277H175.082V149.106H177.035Z" fill="white"/>
<path d="M177.035 163.738V164.957H175.082V166.786H173.78V164.957H171.828V163.738H173.78V161.909H175.082V163.738H177.035Z" fill="white"/>
<path d="M177.035 178.37V179.589H175.082V181.418H173.78V179.589H171.828V178.37H173.78V176.541H175.082V178.37H177.035Z" fill="white"/>
<path d="M177.035 193.002V194.221H175.082V196.05H173.78V194.221H171.828V193.002H173.78V191.173H175.082V193.002H177.035Z" fill="white"/>
<path d="M177.035 207.633V208.853H175.082V210.682H173.78V208.853H171.828V207.633H173.78V205.804H175.082V207.633H177.035Z" fill="white"/>
<path d="M177.035 222.265V223.484H175.082V225.313H173.78V223.484H171.828V222.265H173.78V220.436H175.082V222.265H177.035Z" fill="white"/>
<path d="M177.035 236.897V238.116H175.082V239.945H173.78V238.116H171.828V236.897H173.78V235.068H175.082V236.897H177.035Z" fill="white"/>
<path d="M177.035 251.529V252.748H175.082V254.577H173.78V252.748H171.828V251.529H173.78V249.7H175.082V251.529H177.035Z" fill="white"/>
<path d="M177.035 266.161V267.38H175.082V269.209H173.78V267.38H171.828V266.161H173.78V264.332H175.082V266.161H177.035Z" fill="white"/>
<path d="M177.035 280.792V282.012H175.082V283.841H173.78V282.012H171.828V280.792H173.78V278.963H175.082V280.792H177.035Z" fill="white"/>
<path d="M161.414 2.78869V4.008H159.461V5.83698H158.16V4.008H156.207V2.78869H158.16V0.959717H159.461V2.78869H161.414Z" fill="white"/>
<path d="M161.414 17.4204V18.6397H159.461V20.4687H158.16V18.6397H156.207V17.4204H158.16V15.5914H159.461V17.4204H161.414Z" fill="white"/>
<path d="M161.414 32.0522V33.2716H159.461V35.1005H158.16V33.2716H156.207V32.0522H158.16V30.2233H159.461V32.0522H161.414Z" fill="white"/>
<path d="M161.414 46.6839V47.9033H159.461V49.7322H158.16V47.9033H156.207V46.6839H158.16V44.855H159.461V46.6839H161.414Z" fill="white"/>
<path d="M161.414 61.3158V62.5351H159.461V64.3641H158.16V62.5351H156.207V61.3158H158.16V59.4868H159.461V61.3158H161.414Z" fill="white"/>
<path d="M161.414 75.9475V77.1668H159.461V78.9958H158.16V77.1668H156.207V75.9475H158.16V74.1185H159.461V75.9475H161.414Z" fill="white"/>
<path d="M161.414 90.5792V91.7985H159.461V93.6275H158.16V91.7985H156.207V90.5792H158.16V88.7502H159.461V90.5792H161.414Z" fill="white"/>
<path d="M161.414 105.211V106.43H159.461V108.259H158.16V106.43H156.207V105.211H158.16V103.382H159.461V105.211H161.414Z" fill="white"/>
<path d="M161.414 119.843V121.062H159.461V122.891H158.16V121.062H156.207V119.843H158.16V118.014H159.461V119.843H161.414Z" fill="white"/>
<path d="M161.414 134.475V135.694H159.461V137.523H158.16V135.694H156.207V134.475H158.16V132.646H159.461V134.475H161.414Z" fill="white"/>
<path d="M161.414 149.106V150.326H159.461V152.155H158.16V150.326H156.207V149.106H158.16V147.277H159.461V149.106H161.414Z" fill="white"/>
<path d="M161.414 163.738V164.957H159.461V166.786H158.16V164.957H156.207V163.738H158.16V161.909H159.461V163.738H161.414Z" fill="white"/>
<path d="M161.414 178.37V179.589H159.461V181.418H158.16V179.589H156.207V178.37H158.16V176.541H159.461V178.37H161.414Z" fill="white"/>
<path d="M161.414 193.002V194.221H159.461V196.05H158.16V194.221H156.207V193.002H158.16V191.173H159.461V193.002H161.414Z" fill="white"/>
<path d="M161.414 207.633V208.853H159.461V210.682H158.16V208.853H156.207V207.633H158.16V205.804H159.461V207.633H161.414Z" fill="white"/>
<path d="M161.414 222.265V223.484H159.461V225.313H158.16V223.484H156.207V222.265H158.16V220.436H159.461V222.265H161.414Z" fill="white"/>
<path d="M161.414 236.897V238.116H159.461V239.945H158.16V238.116H156.207V236.897H158.16V235.068H159.461V236.897H161.414Z" fill="white"/>
<path d="M161.414 251.529V252.748H159.461V254.577H158.16V252.748H156.207V251.529H158.16V249.7H159.461V251.529H161.414Z" fill="white"/>
<path d="M161.414 266.161V267.38H159.461V269.209H158.16V267.38H156.207V266.161H158.16V264.332H159.461V266.161H161.414Z" fill="white"/>
<path d="M161.414 280.792V282.012H159.461V283.841H158.16V282.012H156.207V280.792H158.16V278.963H159.461V280.792H161.414Z" fill="white"/>
<path d="M145.793 2.78869V4.008H143.841V5.83698H142.539V4.008H140.586V2.78869H142.539V0.959717H143.841V2.78869H145.793Z" fill="white"/>
<path d="M145.793 17.4204V18.6397H143.841V20.4687H142.539V18.6397H140.586V17.4204H142.539V15.5914H143.841V17.4204H145.793Z" fill="white"/>
<path d="M145.793 32.0522V33.2716H143.841V35.1005H142.539V33.2716H140.586V32.0522H142.539V30.2233H143.841V32.0522H145.793Z" fill="white"/>
<path d="M145.793 46.6839V47.9033H143.841V49.7322H142.539V47.9033H140.586V46.6839H142.539V44.855H143.841V46.6839H145.793Z" fill="white"/>
<path d="M145.793 61.3158V62.5351H143.841V64.3641H142.539V62.5351H140.586V61.3158H142.539V59.4868H143.841V61.3158H145.793Z" fill="white"/>
<path d="M145.793 75.9475V77.1668H143.841V78.9958H142.539V77.1668H140.586V75.9475H142.539V74.1185H143.841V75.9475H145.793Z" fill="white"/>
<path d="M145.793 90.5792V91.7985H143.841V93.6275H142.539V91.7985H140.586V90.5792H142.539V88.7502H143.841V90.5792H145.793Z" fill="white"/>
<path d="M145.793 105.211V106.43H143.841V108.259H142.539V106.43H140.586V105.211H142.539V103.382H143.841V105.211H145.793Z" fill="white"/>
<path d="M145.793 119.843V121.062H143.841V122.891H142.539V121.062H140.586V119.843H142.539V118.014H143.841V119.843H145.793Z" fill="white"/>
<path d="M145.793 134.475V135.694H143.841V137.523H142.539V135.694H140.586V134.475H142.539V132.646H143.841V134.475H145.793Z" fill="white"/>
<path d="M145.793 149.106V150.326H143.841V152.155H142.539V150.326H140.586V149.106H142.539V147.277H143.841V149.106H145.793Z" fill="white"/>
<path d="M145.793 163.738V164.957H143.841V166.786H142.539V164.957H140.586V163.738H142.539V161.909H143.841V163.738H145.793Z" fill="white"/>
<path d="M145.793 178.37V179.589H143.841V181.418H142.539V179.589H140.586V178.37H142.539V176.541H143.841V178.37H145.793Z" fill="white"/>
<path d="M145.793 193.002V194.221H143.841V196.05H142.539V194.221H140.586V193.002H142.539V191.173H143.841V193.002H145.793Z" fill="white"/>
<path d="M145.793 207.633V208.853H143.841V210.682H142.539V208.853H140.586V207.633H142.539V205.804H143.841V207.633H145.793Z" fill="white"/>
<path d="M145.793 222.265V223.484H143.841V225.313H142.539V223.484H140.586V222.265H142.539V220.436H143.841V222.265H145.793Z" fill="white"/>
<path d="M145.793 236.897V238.116H143.841V239.945H142.539V238.116H140.586V236.897H142.539V235.068H143.841V236.897H145.793Z" fill="white"/>
<path d="M145.793 251.529V252.748H143.841V254.577H142.539V252.748H140.586V251.529H142.539V249.7H143.841V251.529H145.793Z" fill="white"/>
<path d="M145.793 266.161V267.38H143.841V269.209H142.539V267.38H140.586V266.161H142.539V264.332H143.841V266.161H145.793Z" fill="white"/>
<path d="M145.793 280.792V282.012H143.841V283.841H142.539V282.012H140.586V280.792H142.539V278.963H143.841V280.792H145.793Z" fill="white"/>
<path d="M130.173 2.78869V4.008H128.22V5.83698H126.918V4.008H124.966V2.78869H126.918V0.959717H128.22V2.78869H130.173Z" fill="white"/>
<path d="M130.173 17.4204V18.6397H128.22V20.4687H126.918V18.6397H124.966V17.4204H126.918V15.5914H128.22V17.4204H130.173Z" fill="white"/>
<path d="M130.173 32.0522V33.2716H128.22V35.1005H126.918V33.2716H124.966V32.0522H126.918V30.2233H128.22V32.0522H130.173Z" fill="white"/>
<path d="M130.173 46.6839V47.9033H128.22V49.7322H126.918V47.9033H124.966V46.6839H126.918V44.855H128.22V46.6839H130.173Z" fill="white"/>
<path d="M130.173 61.3158V62.5351H128.22V64.3641H126.918V62.5351H124.966V61.3158H126.918V59.4868H128.22V61.3158H130.173Z" fill="white"/>
<path d="M130.173 75.9475V77.1668H128.22V78.9958H126.918V77.1668H124.966V75.9475H126.918V74.1185H128.22V75.9475H130.173Z" fill="white"/>
<path d="M130.173 90.5792V91.7985H128.22V93.6275H126.918V91.7985H124.966V90.5792H126.918V88.7502H128.22V90.5792H130.173Z" fill="white"/>
<path d="M130.173 105.211V106.43H128.22V108.259H126.918V106.43H124.966V105.211H126.918V103.382H128.22V105.211H130.173Z" fill="white"/>
<path d="M130.173 119.843V121.062H128.22V122.891H126.918V121.062H124.966V119.843H126.918V118.014H128.22V119.843H130.173Z" fill="white"/>
<path d="M130.173 134.475V135.694H128.22V137.523H126.918V135.694H124.966V134.475H126.918V132.646H128.22V134.475H130.173Z" fill="white"/>
<path d="M130.173 149.106V150.326H128.22V152.155H126.918V150.326H124.966V149.106H126.918V147.277H128.22V149.106H130.173Z" fill="white"/>
<path d="M130.173 163.738V164.957H128.22V166.786H126.918V164.957H124.966V163.738H126.918V161.909H128.22V163.738H130.173Z" fill="white"/>
<path d="M130.173 178.37V179.589H128.22V181.418H126.918V179.589H124.966V178.37H126.918V176.541H128.22V178.37H130.173Z" fill="white"/>
<path d="M130.173 193.002V194.221H128.22V196.05H126.918V194.221H124.966V193.002H126.918V191.173H128.22V193.002H130.173Z" fill="white"/>
<path d="M130.173 207.633V208.853H128.22V210.682H126.918V208.853H124.966V207.633H126.918V205.804H128.22V207.633H130.173Z" fill="white"/>
<path d="M130.173 222.265V223.484H128.22V225.313H126.918V223.484H124.966V222.265H126.918V220.436H128.22V222.265H130.173Z" fill="white"/>
<path d="M130.173 236.897V238.116H128.22V239.945H126.918V238.116H124.966V236.897H126.918V235.068H128.22V236.897H130.173Z" fill="white"/>
<path d="M130.173 251.529V252.748H128.22V254.577H126.918V252.748H124.966V251.529H126.918V249.7H128.22V251.529H130.173Z" fill="white"/>
<path d="M130.173 266.161V267.38H128.22V269.209H126.918V267.38H124.966V266.161H126.918V264.332H128.22V266.161H130.173Z" fill="white"/>
<path d="M130.173 280.792V282.012H128.22V283.841H126.918V282.012H124.966V280.792H126.918V278.963H128.22V280.792H130.173Z" fill="white"/>
<path d="M114.552 2.78869V4.008H112.599V5.83698H111.297V4.008H109.345V2.78869H111.297V0.959717H112.599V2.78869H114.552Z" fill="white"/>
<path d="M114.552 17.4204V18.6397H112.599V20.4687H111.297V18.6397H109.345V17.4204H111.297V15.5914H112.599V17.4204H114.552Z" fill="white"/>
<path d="M114.552 32.0522V33.2716H112.599V35.1005H111.297V33.2716H109.345V32.0522H111.297V30.2233H112.599V32.0522H114.552Z" fill="white"/>
<path d="M114.552 46.6839V47.9033H112.599V49.7322H111.297V47.9033H109.345V46.6839H111.297V44.855H112.599V46.6839H114.552Z" fill="white"/>
<path d="M114.552 61.3158V62.5351H112.599V64.3641H111.297V62.5351H109.345V61.3158H111.297V59.4868H112.599V61.3158H114.552Z" fill="white"/>
<path d="M114.552 75.9475V77.1668H112.599V78.9958H111.297V77.1668H109.345V75.9475H111.297V74.1185H112.599V75.9475H114.552Z" fill="white"/>
<path d="M114.552 90.5792V91.7985H112.599V93.6275H111.297V91.7985H109.345V90.5792H111.297V88.7502H112.599V90.5792H114.552Z" fill="white"/>
<path d="M114.552 105.211V106.43H112.599V108.259H111.297V106.43H109.345V105.211H111.297V103.382H112.599V105.211H114.552Z" fill="white"/>
<path d="M114.552 119.843V121.062H112.599V122.891H111.297V121.062H109.345V119.843H111.297V118.014H112.599V119.843H114.552Z" fill="white"/>
<path d="M114.552 134.475V135.694H112.599V137.523H111.297V135.694H109.345V134.475H111.297V132.646H112.599V134.475H114.552Z" fill="white"/>
<path d="M114.552 149.106V150.326H112.599V152.155H111.297V150.326H109.345V149.106H111.297V147.277H112.599V149.106H114.552Z" fill="white"/>
<path d="M114.552 163.738V164.957H112.599V166.786H111.297V164.957H109.345V163.738H111.297V161.909H112.599V163.738H114.552Z" fill="white"/>
<path d="M114.552 178.37V179.589H112.599V181.418H111.297V179.589H109.345V178.37H111.297V176.541H112.599V178.37H114.552Z" fill="white"/>
<path d="M114.552 193.002V194.221H112.599V196.05H111.297V194.221H109.345V193.002H111.297V191.173H112.599V193.002H114.552Z" fill="white"/>
<path d="M114.552 207.633V208.853H112.599V210.682H111.297V208.853H109.345V207.633H111.297V205.804H112.599V207.633H114.552Z" fill="white"/>
<path d="M114.552 222.265V223.484H112.599V225.313H111.297V223.484H109.345V222.265H111.297V220.436H112.599V222.265H114.552Z" fill="white"/>
<path d="M114.552 236.897V238.116H112.599V239.945H111.297V238.116H109.345V236.897H111.297V235.068H112.599V236.897H114.552Z" fill="white"/>
<path d="M114.552 251.529V252.748H112.599V254.577H111.297V252.748H109.345V251.529H111.297V249.7H112.599V251.529H114.552Z" fill="white"/>
<path d="M114.552 266.161V267.38H112.599V269.209H111.297V267.38H109.345V266.161H111.297V264.332H112.599V266.161H114.552Z" fill="white"/>
<path d="M114.552 280.792V282.012H112.599V283.841H111.297V282.012H109.345V280.792H111.297V278.963H112.599V280.792H114.552Z" fill="white"/>
<path d="M98.931 2.78869V4.008H96.9784V5.83698H95.6767V4.008H93.7241V2.78869H95.6767V0.959717H96.9784V2.78869H98.931Z" fill="white"/>
<path d="M98.9305 17.4204V18.6397H96.978V20.4687H95.6762V18.6397H93.7236V17.4204H95.6762V15.5914H96.978V17.4204H98.9305Z" fill="white"/>
<path d="M98.9305 32.0522V33.2716H96.978V35.1005H95.6762V33.2716H93.7236V32.0522H95.6762V30.2233H96.978V32.0522H98.9305Z" fill="white"/>
<path d="M98.9305 46.6839V47.9033H96.978V49.7322H95.6762V47.9033H93.7236V46.6839H95.6762V44.855H96.978V46.6839H98.9305Z" fill="white"/>
<path d="M98.9305 61.3158V62.5351H96.978V64.3641H95.6762V62.5351H93.7236V61.3158H95.6762V59.4868H96.978V61.3158H98.9305Z" fill="white"/>
<path d="M98.9305 75.9475V77.1668H96.978V78.9958H95.6762V77.1668H93.7236V75.9475H95.6762V74.1185H96.978V75.9475H98.9305Z" fill="white"/>
<path d="M98.9305 90.5792V91.7985H96.978V93.6275H95.6762V91.7985H93.7236V90.5792H95.6762V88.7502H96.978V90.5792H98.9305Z" fill="white"/>
<path d="M98.9305 105.211V106.43H96.978V108.259H95.6762V106.43H93.7236V105.211H95.6762V103.382H96.978V105.211H98.9305Z" fill="white"/>
<path d="M98.9305 119.843V121.062H96.978V122.891H95.6762V121.062H93.7236V119.843H95.6762V118.014H96.978V119.843H98.9305Z" fill="white"/>
<path d="M98.9305 134.475V135.694H96.978V137.523H95.6762V135.694H93.7236V134.475H95.6762V132.646H96.978V134.475H98.9305Z" fill="white"/>
<path d="M98.9305 149.106V150.326H96.978V152.155H95.6762V150.326H93.7236V149.106H95.6762V147.277H96.978V149.106H98.9305Z" fill="white"/>
<path d="M98.9305 163.738V164.957H96.978V166.786H95.6762V164.957H93.7236V163.738H95.6762V161.909H96.978V163.738H98.9305Z" fill="white"/>
<path d="M98.9305 178.37V179.589H96.978V181.418H95.6762V179.589H93.7236V178.37H95.6762V176.541H96.978V178.37H98.9305Z" fill="white"/>
<path d="M98.9305 193.002V194.221H96.978V196.05H95.6762V194.221H93.7236V193.002H95.6762V191.173H96.978V193.002H98.9305Z" fill="white"/>
<path d="M98.9305 207.633V208.853H96.978V210.682H95.6762V208.853H93.7236V207.633H95.6762V205.804H96.978V207.633H98.9305Z" fill="white"/>
<path d="M98.9305 222.265V223.484H96.978V225.313H95.6762V223.484H93.7236V222.265H95.6762V220.436H96.978V222.265H98.9305Z" fill="white"/>
<path d="M98.9305 236.897V238.116H96.978V239.945H95.6762V238.116H93.7236V236.897H95.6762V235.068H96.978V236.897H98.9305Z" fill="white"/>
<path d="M98.9305 251.529V252.748H96.978V254.577H95.6762V252.748H93.7236V251.529H95.6762V249.7H96.978V251.529H98.9305Z" fill="white"/>
<path d="M98.9305 266.161V267.38H96.978V269.209H95.6762V267.38H93.7236V266.161H95.6762V264.332H96.978V266.161H98.9305Z" fill="white"/>
<path d="M98.9305 280.792V282.012H96.978V283.841H95.6762V282.012H93.7236V280.792H95.6762V278.963H96.978V280.792H98.9305Z" fill="white"/>
<path d="M83.3104 2.78869V4.008H81.3578V5.83698H80.0561V4.008H78.1035V2.78869H80.0561V0.959717H81.3578V2.78869H83.3104Z" fill="white"/>
<path d="M83.3104 17.4204V18.6397H81.3578V20.4687H80.0561V18.6397H78.1035V17.4204H80.0561V15.5914H81.3578V17.4204H83.3104Z" fill="white"/>
<path d="M83.3104 32.0522V33.2716H81.3578V35.1005H80.0561V33.2716H78.1035V32.0522H80.0561V30.2233H81.3578V32.0522H83.3104Z" fill="white"/>
<path d="M83.3104 46.6839V47.9033H81.3578V49.7322H80.0561V47.9033H78.1035V46.6839H80.0561V44.855H81.3578V46.6839H83.3104Z" fill="white"/>
<path d="M83.3104 61.3158V62.5351H81.3578V64.3641H80.0561V62.5351H78.1035V61.3158H80.0561V59.4868H81.3578V61.3158H83.3104Z" fill="white"/>
<path d="M83.3104 75.9475V77.1668H81.3578V78.9958H80.0561V77.1668H78.1035V75.9475H80.0561V74.1185H81.3578V75.9475H83.3104Z" fill="white"/>
<path d="M83.3104 90.5792V91.7985H81.3578V93.6275H80.0561V91.7985H78.1035V90.5792H80.0561V88.7502H81.3578V90.5792H83.3104Z" fill="white"/>
<path d="M83.3104 105.211V106.43H81.3578V108.259H80.0561V106.43H78.1035V105.211H80.0561V103.382H81.3578V105.211H83.3104Z" fill="white"/>
<path d="M83.3104 119.843V121.062H81.3578V122.891H80.0561V121.062H78.1035V119.843H80.0561V118.014H81.3578V119.843H83.3104Z" fill="white"/>
<path d="M83.3104 134.475V135.694H81.3578V137.523H80.0561V135.694H78.1035V134.475H80.0561V132.646H81.3578V134.475H83.3104Z" fill="white"/>
<path d="M83.3104 149.106V150.326H81.3578V152.155H80.0561V150.326H78.1035V149.106H80.0561V147.277H81.3578V149.106H83.3104Z" fill="white"/>
<path d="M83.3104 163.738V164.957H81.3578V166.786H80.0561V164.957H78.1035V163.738H80.0561V161.909H81.3578V163.738H83.3104Z" fill="white"/>
<path d="M83.3104 178.37V179.589H81.3578V181.418H80.0561V179.589H78.1035V178.37H80.0561V176.541H81.3578V178.37H83.3104Z" fill="white"/>
<path d="M83.3104 193.002V194.221H81.3578V196.05H80.0561V194.221H78.1035V193.002H80.0561V191.173H81.3578V193.002H83.3104Z" fill="white"/>
<path d="M83.3104 207.633V208.853H81.3578V210.682H80.0561V208.853H78.1035V207.633H80.0561V205.804H81.3578V207.633H83.3104Z" fill="white"/>
<path d="M83.3104 222.265V223.484H81.3578V225.313H80.0561V223.484H78.1035V222.265H80.0561V220.436H81.3578V222.265H83.3104Z" fill="white"/>
<path d="M83.3104 236.897V238.116H81.3578V239.945H80.0561V238.116H78.1035V236.897H80.0561V235.068H81.3578V236.897H83.3104Z" fill="white"/>
<path d="M83.3104 251.529V252.748H81.3578V254.577H80.0561V252.748H78.1035V251.529H80.0561V249.7H81.3578V251.529H83.3104Z" fill="white"/>
<path d="M83.3104 266.161V267.38H81.3578V269.209H80.0561V267.38H78.1035V266.161H80.0561V264.332H81.3578V266.161H83.3104Z" fill="white"/>
<path d="M83.3104 280.792V282.012H81.3578V283.841H80.0561V282.012H78.1035V280.792H80.0561V278.963H81.3578V280.792H83.3104Z" fill="white"/>
<path d="M67.6898 2.78869V4.008H65.7372V5.83698H64.4355V4.008H62.4829V2.78869H64.4355V0.959717H65.7372V2.78869H67.6898Z" fill="white"/>
<path d="M67.6898 17.4204V18.6397H65.7372V20.4687H64.4355V18.6397H62.4829V17.4204H64.4355V15.5914H65.7372V17.4204H67.6898Z" fill="white"/>
<path d="M67.6898 32.0522V33.2716H65.7372V35.1005H64.4355V33.2716H62.4829V32.0522H64.4355V30.2233H65.7372V32.0522H67.6898Z" fill="white"/>
<path d="M67.6898 46.6839V47.9033H65.7372V49.7322H64.4355V47.9033H62.4829V46.6839H64.4355V44.855H65.7372V46.6839H67.6898Z" fill="white"/>
<path d="M67.6898 61.3158V62.5351H65.7372V64.3641H64.4355V62.5351H62.4829V61.3158H64.4355V59.4868H65.7372V61.3158H67.6898Z" fill="white"/>
<path d="M67.6898 75.9475V77.1668H65.7372V78.9958H64.4355V77.1668H62.4829V75.9475H64.4355V74.1185H65.7372V75.9475H67.6898Z" fill="white"/>
<path d="M67.6898 90.5792V91.7985H65.7372V93.6275H64.4355V91.7985H62.4829V90.5792H64.4355V88.7502H65.7372V90.5792H67.6898Z" fill="white"/>
<path d="M67.6898 105.211V106.43H65.7372V108.259H64.4355V106.43H62.4829V105.211H64.4355V103.382H65.7372V105.211H67.6898Z" fill="white"/>
<path d="M67.6898 119.843V121.062H65.7372V122.891H64.4355V121.062H62.4829V119.843H64.4355V118.014H65.7372V119.843H67.6898Z" fill="white"/>
<path d="M67.6898 134.475V135.694H65.7372V137.523H64.4355V135.694H62.4829V134.475H64.4355V132.646H65.7372V134.475H67.6898Z" fill="white"/>
<path d="M67.6898 149.106V150.326H65.7372V152.155H64.4355V150.326H62.4829V149.106H64.4355V147.277H65.7372V149.106H67.6898Z" fill="white"/>
<path d="M67.6898 163.738V164.957H65.7372V166.786H64.4355V164.957H62.4829V163.738H64.4355V161.909H65.7372V163.738H67.6898Z" fill="white"/>
<path d="M67.6898 178.37V179.589H65.7372V181.418H64.4355V179.589H62.4829V178.37H64.4355V176.541H65.7372V178.37H67.6898Z" fill="white"/>
<path d="M67.6898 193.002V194.221H65.7372V196.05H64.4355V194.221H62.4829V193.002H64.4355V191.173H65.7372V193.002H67.6898Z" fill="white"/>
<path d="M67.6898 207.633V208.853H65.7372V210.682H64.4355V208.853H62.4829V207.633H64.4355V205.804H65.7372V207.633H67.6898Z" fill="white"/>
<path d="M67.6898 222.265V223.484H65.7372V225.313H64.4355V223.484H62.4829V222.265H64.4355V220.436H65.7372V222.265H67.6898Z" fill="white"/>
<path d="M67.6898 236.897V238.116H65.7372V239.945H64.4355V238.116H62.4829V236.897H64.4355V235.068H65.7372V236.897H67.6898Z" fill="white"/>
<path d="M67.6898 251.529V252.748H65.7372V254.577H64.4355V252.748H62.4829V251.529H64.4355V249.7H65.7372V251.529H67.6898Z" fill="white"/>
<path d="M67.6898 266.161V267.38H65.7372V269.209H64.4355V267.38H62.4829V266.161H64.4355V264.332H65.7372V266.161H67.6898Z" fill="white"/>
<path d="M67.6898 280.792V282.012H65.7372V283.841H64.4355V282.012H62.4829V280.792H64.4355V278.963H65.7372V280.792H67.6898Z" fill="white"/>
<path d="M52.0692 2.78869V4.008H50.1166V5.83698H48.8149V4.008H46.8623V2.78869H48.8149V0.959717H50.1166V2.78869H52.0692Z" fill="white"/>
<path d="M52.0692 17.4204V18.6397H50.1166V20.4687H48.8149V18.6397H46.8623V17.4204H48.8149V15.5914H50.1166V17.4204H52.0692Z" fill="white"/>
<path d="M52.0692 32.0522V33.2716H50.1166V35.1005H48.8149V33.2716H46.8623V32.0522H48.8149V30.2233H50.1166V32.0522H52.0692Z" fill="white"/>
<path d="M52.0692 46.6839V47.9033H50.1166V49.7322H48.8149V47.9033H46.8623V46.6839H48.8149V44.855H50.1166V46.6839H52.0692Z" fill="white"/>
<path d="M52.0692 61.3158V62.5351H50.1166V64.3641H48.8149V62.5351H46.8623V61.3158H48.8149V59.4868H50.1166V61.3158H52.0692Z" fill="white"/>
<path d="M52.0692 75.9475V77.1668H50.1166V78.9958H48.8149V77.1668H46.8623V75.9475H48.8149V74.1185H50.1166V75.9475H52.0692Z" fill="white"/>
<path d="M52.0692 90.5792V91.7985H50.1166V93.6275H48.8149V91.7985H46.8623V90.5792H48.8149V88.7502H50.1166V90.5792H52.0692Z" fill="white"/>
<path d="M52.0692 105.211V106.43H50.1166V108.259H48.8149V106.43H46.8623V105.211H48.8149V103.382H50.1166V105.211H52.0692Z" fill="white"/>
<path d="M52.0692 119.843V121.062H50.1166V122.891H48.8149V121.062H46.8623V119.843H48.8149V118.014H50.1166V119.843H52.0692Z" fill="white"/>
<path d="M52.0692 134.475V135.694H50.1166V137.523H48.8149V135.694H46.8623V134.475H48.8149V132.646H50.1166V134.475H52.0692Z" fill="white"/>
<path d="M52.0692 149.106V150.326H50.1166V152.155H48.8149V150.326H46.8623V149.106H48.8149V147.277H50.1166V149.106H52.0692Z" fill="white"/>
<path d="M52.0692 163.738V164.957H50.1166V166.786H48.8149V164.957H46.8623V163.738H48.8149V161.909H50.1166V163.738H52.0692Z" fill="white"/>
<path d="M52.0692 178.37V179.589H50.1166V181.418H48.8149V179.589H46.8623V178.37H48.8149V176.541H50.1166V178.37H52.0692Z" fill="white"/>
<path d="M52.0692 193.002V194.221H50.1166V196.05H48.8149V194.221H46.8623V193.002H48.8149V191.173H50.1166V193.002H52.0692Z" fill="white"/>
<path d="M52.0692 207.633V208.853H50.1166V210.682H48.8149V208.853H46.8623V207.633H48.8149V205.804H50.1166V207.633H52.0692Z" fill="white"/>
<path d="M52.0692 222.265V223.484H50.1166V225.313H48.8149V223.484H46.8623V222.265H48.8149V220.436H50.1166V222.265H52.0692Z" fill="white"/>
<path d="M52.0692 236.897V238.116H50.1166V239.945H48.8149V238.116H46.8623V236.897H48.8149V235.068H50.1166V236.897H52.0692Z" fill="white"/>
<path d="M52.0692 251.529V252.748H50.1166V254.577H48.8149V252.748H46.8623V251.529H48.8149V249.7H50.1166V251.529H52.0692Z" fill="white"/>
<path d="M52.0692 266.161V267.38H50.1166V269.209H48.8149V267.38H46.8623V266.161H48.8149V264.332H50.1166V266.161H52.0692Z" fill="white"/>
<path d="M52.0692 280.792V282.012H50.1166V283.841H48.8149V282.012H46.8623V280.792H48.8149V278.963H50.1166V280.792H52.0692Z" fill="white"/>
<path d="M36.4481 2.78869V4.008H34.4955V5.83698H33.1938V4.008H31.2412V2.78869H33.1938V0.959717H34.4955V2.78869H36.4481Z" fill="white"/>
<path d="M36.4481 17.4204V18.6397H34.4955V20.4687H33.1938V18.6397H31.2412V17.4204H33.1938V15.5914H34.4955V17.4204H36.4481Z" fill="white"/>
<path d="M36.4481 32.0522V33.2716H34.4955V35.1005H33.1938V33.2716H31.2412V32.0522H33.1938V30.2233H34.4955V32.0522H36.4481Z" fill="white"/>
<path d="M36.4481 46.6839V47.9033H34.4955V49.7322H33.1938V47.9033H31.2412V46.6839H33.1938V44.855H34.4955V46.6839H36.4481Z" fill="white"/>
<path d="M36.4481 61.3158V62.5351H34.4955V64.3641H33.1938V62.5351H31.2412V61.3158H33.1938V59.4868H34.4955V61.3158H36.4481Z" fill="white"/>
<path d="M36.4481 75.9475V77.1668H34.4955V78.9958H33.1938V77.1668H31.2412V75.9475H33.1938V74.1185H34.4955V75.9475H36.4481Z" fill="white"/>
<path d="M36.4481 90.5792V91.7985H34.4955V93.6275H33.1938V91.7985H31.2412V90.5792H33.1938V88.7502H34.4955V90.5792H36.4481Z" fill="white"/>
<path d="M36.4481 105.211V106.43H34.4955V108.259H33.1938V106.43H31.2412V105.211H33.1938V103.382H34.4955V105.211H36.4481Z" fill="white"/>
<path d="M36.4481 119.843V121.062H34.4955V122.891H33.1938V121.062H31.2412V119.843H33.1938V118.014H34.4955V119.843H36.4481Z" fill="white"/>
<path d="M36.4481 134.475V135.694H34.4955V137.523H33.1938V135.694H31.2412V134.475H33.1938V132.646H34.4955V134.475H36.4481Z" fill="white"/>
<path d="M36.4481 149.106V150.326H34.4955V152.155H33.1938V150.326H31.2412V149.106H33.1938V147.277H34.4955V149.106H36.4481Z" fill="white"/>
<path d="M36.4481 163.738V164.957H34.4955V166.786H33.1938V164.957H31.2412V163.738H33.1938V161.909H34.4955V163.738H36.4481Z" fill="white"/>
<path d="M36.4481 178.37V179.589H34.4955V181.418H33.1938V179.589H31.2412V178.37H33.1938V176.541H34.4955V178.37H36.4481Z" fill="white"/>
<path d="M36.4481 193.002V194.221H34.4955V196.05H33.1938V194.221H31.2412V193.002H33.1938V191.173H34.4955V193.002H36.4481Z" fill="white"/>
<path d="M36.4481 207.633V208.853H34.4955V210.682H33.1938V208.853H31.2412V207.633H33.1938V205.804H34.4955V207.633H36.4481Z" fill="white"/>
<path d="M36.4481 222.265V223.484H34.4955V225.313H33.1938V223.484H31.2412V222.265H33.1938V220.436H34.4955V222.265H36.4481Z" fill="white"/>
<path d="M36.4481 236.897V238.116H34.4955V239.945H33.1938V238.116H31.2412V236.897H33.1938V235.068H34.4955V236.897H36.4481Z" fill="white"/>
<path d="M36.4481 251.529V252.748H34.4955V254.577H33.1938V252.748H31.2412V251.529H33.1938V249.7H34.4955V251.529H36.4481Z" fill="white"/>
<path d="M36.4481 266.161V267.38H34.4955V269.209H33.1938V267.38H31.2412V266.161H33.1938V264.332H34.4955V266.161H36.4481Z" fill="white"/>
<path d="M36.4481 280.792V282.012H34.4955V283.841H33.1938V282.012H31.2412V280.792H33.1938V278.963H34.4955V280.792H36.4481Z" fill="white"/>
<path d="M20.8275 2.78869V4.008H18.8749V5.83698H17.5732V4.008H15.6206V2.78869H17.5732V0.959717H18.8749V2.78869H20.8275Z" fill="white"/>
<path d="M20.8275 17.4204V18.6397H18.8749V20.4687H17.5732V18.6397H15.6206V17.4204H17.5732V15.5914H18.8749V17.4204H20.8275Z" fill="white"/>
<path d="M20.8275 32.0522V33.2716H18.8749V35.1005H17.5732V33.2716H15.6206V32.0522H17.5732V30.2233H18.8749V32.0522H20.8275Z" fill="white"/>
<path d="M20.8275 46.6839V47.9033H18.8749V49.7322H17.5732V47.9033H15.6206V46.6839H17.5732V44.855H18.8749V46.6839H20.8275Z" fill="white"/>
<path d="M20.8275 61.3158V62.5351H18.8749V64.3641H17.5732V62.5351H15.6206V61.3158H17.5732V59.4868H18.8749V61.3158H20.8275Z" fill="white"/>
<path d="M20.8275 75.9475V77.1668H18.8749V78.9958H17.5732V77.1668H15.6206V75.9475H17.5732V74.1185H18.8749V75.9475H20.8275Z" fill="white"/>
<path d="M20.8275 90.5792V91.7985H18.8749V93.6275H17.5732V91.7985H15.6206V90.5792H17.5732V88.7502H18.8749V90.5792H20.8275Z" fill="white"/>
<path d="M20.8275 105.211V106.43H18.8749V108.259H17.5732V106.43H15.6206V105.211H17.5732V103.382H18.8749V105.211H20.8275Z" fill="white"/>
<path d="M20.8275 119.843V121.062H18.8749V122.891H17.5732V121.062H15.6206V119.843H17.5732V118.014H18.8749V119.843H20.8275Z" fill="white"/>
<path d="M20.8275 134.475V135.694H18.8749V137.523H17.5732V135.694H15.6206V134.475H17.5732V132.646H18.8749V134.475H20.8275Z" fill="white"/>
<path d="M20.8275 149.106V150.326H18.8749V152.155H17.5732V150.326H15.6206V149.106H17.5732V147.277H18.8749V149.106H20.8275Z" fill="white"/>
<path d="M20.8275 163.738V164.957H18.8749V166.786H17.5732V164.957H15.6206V163.738H17.5732V161.909H18.8749V163.738H20.8275Z" fill="white"/>
<path d="M20.8275 178.37V179.589H18.8749V181.418H17.5732V179.589H15.6206V178.37H17.5732V176.541H18.8749V178.37H20.8275Z" fill="white"/>
<path d="M20.8275 193.002V194.221H18.8749V196.05H17.5732V194.221H15.6206V193.002H17.5732V191.173H18.8749V193.002H20.8275Z" fill="white"/>
<path d="M20.8275 207.633V208.853H18.8749V210.682H17.5732V208.853H15.6206V207.633H17.5732V205.804H18.8749V207.633H20.8275Z" fill="white"/>
<path d="M20.8275 222.265V223.484H18.8749V225.313H17.5732V223.484H15.6206V222.265H17.5732V220.436H18.8749V222.265H20.8275Z" fill="white"/>
<path d="M20.8275 236.897V238.116H18.8749V239.945H17.5732V238.116H15.6206V236.897H17.5732V235.068H18.8749V236.897H20.8275Z" fill="white"/>
<path d="M20.8275 251.529V252.748H18.8749V254.577H17.5732V252.748H15.6206V251.529H17.5732V249.7H18.8749V251.529H20.8275Z" fill="white"/>
<path d="M20.8275 266.161V267.38H18.8749V269.209H17.5732V267.38H15.6206V266.161H17.5732V264.332H18.8749V266.161H20.8275Z" fill="white"/>
<path d="M20.8275 280.792V282.012H18.8749V283.841H17.5732V282.012H15.6206V280.792H17.5732V278.963H18.8749V280.792H20.8275Z" fill="white"/>
<path d="M5.20691 2.78869V4.008H3.25432V5.83698H1.95259V4.008H0V2.78869H1.95259V0.959717H3.25432V2.78869H5.20691Z" fill="white"/>
<path d="M5.20691 17.4204V18.6397H3.25432V20.4687H1.95259V18.6397H0V17.4204H1.95259V15.5914H3.25432V17.4204H5.20691Z" fill="white"/>
<path d="M5.20691 32.0522V33.2716H3.25432V35.1005H1.95259V33.2716H0V32.0522H1.95259V30.2233H3.25432V32.0522H5.20691Z" fill="white"/>
<path d="M5.20691 46.6839V47.9033H3.25432V49.7322H1.95259V47.9033H0V46.6839H1.95259V44.855H3.25432V46.6839H5.20691Z" fill="white"/>
<path d="M5.20691 61.3158V62.5351H3.25432V64.3641H1.95259V62.5351H0V61.3158H1.95259V59.4868H3.25432V61.3158H5.20691Z" fill="white"/>
<path d="M5.20691 75.9475V77.1668H3.25432V78.9958H1.95259V77.1668H0V75.9475H1.95259V74.1185H3.25432V75.9475H5.20691Z" fill="white"/>
<path d="M5.20691 90.5792V91.7985H3.25432V93.6275H1.95259V91.7985H0V90.5792H1.95259V88.7502H3.25432V90.5792H5.20691Z" fill="white"/>
<path d="M5.20691 105.211V106.43H3.25432V108.259H1.95259V106.43H0V105.211H1.95259V103.382H3.25432V105.211H5.20691Z" fill="white"/>
<path d="M5.20691 119.843V121.062H3.25432V122.891H1.95259V121.062H0V119.843H1.95259V118.014H3.25432V119.843H5.20691Z" fill="white"/>
<path d="M5.20691 134.475V135.694H3.25432V137.523H1.95259V135.694H0V134.475H1.95259V132.646H3.25432V134.475H5.20691Z" fill="white"/>
<path d="M5.20691 149.106V150.326H3.25432V152.155H1.95259V150.326H0V149.106H1.95259V147.277H3.25432V149.106H5.20691Z" fill="white"/>
<path d="M5.20691 163.738V164.957H3.25432V166.786H1.95259V164.957H0V163.738H1.95259V161.909H3.25432V163.738H5.20691Z" fill="white"/>
<path d="M5.20691 178.37V179.589H3.25432V181.418H1.95259V179.589H0V178.37H1.95259V176.541H3.25432V178.37H5.20691Z" fill="white"/>
<path d="M5.20691 193.002V194.221H3.25432V196.05H1.95259V194.221H0V193.002H1.95259V191.173H3.25432V193.002H5.20691Z" fill="white"/>
<path d="M5.20691 207.633V208.853H3.25432V210.682H1.95259V208.853H0V207.633H1.95259V205.804H3.25432V207.633H5.20691Z" fill="white"/>
<path d="M5.20691 222.265V223.484H3.25432V225.313H1.95259V223.484H0V222.265H1.95259V220.436H3.25432V222.265H5.20691Z" fill="white"/>
<path d="M5.20691 236.897V238.116H3.25432V239.945H1.95259V238.116H0V236.897H1.95259V235.068H3.25432V236.897H5.20691Z" fill="white"/>
<path d="M5.20691 251.529V252.748H3.25432V254.577H1.95259V252.748H0V251.529H1.95259V249.7H3.25432V251.529H5.20691Z" fill="white"/>
<path d="M5.20691 266.161V267.38H3.25432V269.209H1.95259V267.38H0V266.161H1.95259V264.332H3.25432V266.161H5.20691Z" fill="white"/>
<path d="M5.20691 280.792V282.012H3.25432V283.841H1.95259V282.012H0V280.792H1.95259V278.963H3.25432V280.792H5.20691Z" fill="white"/>
</g>
</svg>
