<svg width="25" height="28" viewBox="0 0 25 28" fill="none" xmlns="http://www.w3.org/2000/svg">
<path d="M0.502059 0.41969C0.184043 0.744718 0 1.25076 0 1.9061V25.2816C0 25.9369 0.184043 26.443 0.502059 26.768L0.580549 26.8394L13.9968 13.7458V13.4366L0.580549 0.343062L0.502059 0.41969Z" fill="url(#paint0_linear_4006_2226)"/>
<path d="M18.4642 18.1125L13.9971 13.7458V13.4367L18.4696 9.06993L18.5697 9.12675L23.8664 12.0692C25.378 12.9042 25.378 14.2783 23.8664 15.1186L18.5697 18.0557L18.4642 18.1125Z" fill="url(#paint1_linear_4006_2226)"/>
<path d="M18.5698 18.0558L13.9972 13.5913L0.502441 26.7681C1.0045 27.2834 1.82323 27.3455 2.75427 26.8302L18.5698 18.0558Z" fill="url(#paint2_linear_4006_2226)"/>
<path d="M18.5698 9.12694L2.75427 0.352536C1.82323 -0.157465 1.0045 -0.0953681 0.502441 0.419918L13.9972 13.5914L18.5698 9.12694Z" fill="url(#paint3_linear_4006_2226)"/>
<defs>
<linearGradient id="paint0_linear_4006_2226" x1="12.8056" y1="25.525" x2="-4.92829" y2="7.36145" gradientUnits="userSpaceOnUse">
<stop stop-color="#00A0FF"/>
<stop offset="0.0066" stop-color="#00A1FF"/>
<stop offset="0.2601" stop-color="#00BEFF"/>
<stop offset="0.5122" stop-color="#00D2FF"/>
<stop offset="0.7604" stop-color="#00DFFF"/>
<stop offset="1" stop-color="#00E3FF"/>
</linearGradient>
<linearGradient id="paint1_linear_4006_2226" x1="25.8348" y1="13.5898" x2="-0.361042" y2="13.5898" gradientUnits="userSpaceOnUse">
<stop stop-color="#FFE000"/>
<stop offset="0.4087" stop-color="#FFBD00"/>
<stop offset="0.7754" stop-color="#FFA500"/>
<stop offset="1" stop-color="#FF9C00"/>
</linearGradient>
<linearGradient id="paint2_linear_4006_2226" x1="16.0834" y1="11.1643" x2="-7.96521" y2="-13.467" gradientUnits="userSpaceOnUse">
<stop stop-color="#FF3A44"/>
<stop offset="1" stop-color="#C31162"/>
</linearGradient>
<linearGradient id="paint3_linear_4006_2226" x1="-2.89446" y1="34.5451" x2="7.8443" y2="23.5463" gradientUnits="userSpaceOnUse">
<stop stop-color="#32A071"/>
<stop offset="0.0685" stop-color="#2DA771"/>
<stop offset="0.4762" stop-color="#15CF74"/>
<stop offset="0.8009" stop-color="#06E775"/>
<stop offset="1" stop-color="#00F076"/>
</linearGradient>
</defs>
</svg>
